<?xml version="1.0" standalone="no"?>
<!DOCTYPE svg PUBLIC "-//W3C//DTD SVG 20010904//EN"
 "http://www.w3.org/TR/2001/REC-SVG-20010904/DTD/svg10.dtd">
<svg version="1.0" xmlns="http://www.w3.org/2000/svg"
 width="474.000000pt" height="474.000000pt" viewBox="0 0 474.000000 474.000000"
 preserveAspectRatio="xMidYMid meet">

<g transform="translate(0.000000,474.000000) scale(0.100000,-0.100000)"
fill="#000000" stroke="none">
<path d="M3015 4511 c-49 -22 -109 -86 -124 -133 -8 -25 -20 -37 -45 -46 -88
-32 -211 -158 -275 -281 -62 -119 -85 -214 -85 -351 -1 -152 33 -265 111 -366
24 -32 27 -46 28 -109 0 -66 3 -77 31 -112 55 -68 140 -92 218 -59 39 16 93
79 101 118 4 15 12 28 19 28 8 0 46 17 87 37 189 94 326 319 345 565 8 100
-16 221 -61 316 -33 70 -35 78 -26 127 17 91 -11 169 -81 229 -67 58 -165 73
-243 37z m165 -95 c60 -28 88 -122 55 -187 -14 -26 -14 -33 -2 -57 8 -15 26
-49 40 -77 81 -159 75 -378 -16 -550 -40 -76 -141 -183 -204 -217 -26 -15 -69
-32 -95 -38 -56 -14 -63 -22 -71 -74 -9 -54 -37 -81 -86 -81 -68 0 -111 67
-77 120 25 38 19 61 -28 110 -80 82 -116 185 -116 335 0 116 17 188 72 300 53
110 143 203 241 249 38 18 70 38 72 44 2 7 6 24 9 40 19 84 117 124 206 83z"/>
<path d="M2825 4108 c-48 -56 -99 -148 -123 -225 -61 -188 -49 -413 22 -413
37 0 44 26 39 133 -9 167 29 296 128 436 38 54 41 63 31 86 -18 39 -54 33 -97
-17z"/>
<path d="M1001 4358 c-60 -64 -141 -274 -156 -404 -23 -208 114 -426 357 -568
36 -21 54 -41 79 -89 32 -61 106 -184 171 -282 34 -52 66 -67 94 -45 24 21 16
50 -41 136 -66 101 -156 256 -153 264 74 146 101 210 118 274 25 97 26 230 4
307 -43 148 -176 295 -356 393 -75 42 -90 44 -117 14z m142 -138 c41 -28 100
-77 130 -110 145 -156 164 -320 66 -556 -17 -40 -34 -74 -37 -74 -18 0 -100
227 -159 439 -10 35 -26 69 -35 75 -25 15 -68 -8 -68 -37 0 -34 55 -223 96
-334 20 -52 33 -97 30 -100 -2 -3 -38 28 -79 69 -52 51 -84 93 -108 143 -33
67 -34 74 -33 180 0 95 4 120 28 185 36 94 74 170 85 170 5 0 43 -23 84 -50z"/>
<path d="M3720 4290 c-79 -47 -114 -162 -73 -239 70 -134 263 -132 324 3 36
79 13 169 -56 222 -51 38 -143 45 -195 14z m129 -85 c80 -41 47 -155 -45 -155
-36 0 -46 5 -63 29 -25 35 -27 68 -5 99 28 41 69 50 113 27z"/>
<path d="M1869 4232 l-22 -19 16 -139 c25 -208 30 -270 23 -263 -3 3 -42 81
-85 173 -44 92 -85 174 -92 182 -19 23 -62 13 -76 -17 -21 -43 -32 -183 -22
-267 12 -93 58 -196 118 -264 22 -25 41 -48 41 -51 0 -2 -17 -22 -37 -43 -74
-79 -107 -201 -80 -300 17 -63 597 -1077 638 -1116 44 -42 100 -39 145 6 22
22 34 44 34 60 0 164 -43 1221 -51 1251 -33 123 -139 218 -260 232 -46 5 -50
8 -44 27 4 12 9 60 12 107 9 153 -51 295 -178 422 -44 42 -49 44 -80 19z m137
-264 c24 -53 29 -76 29 -143 0 -44 -7 -100 -14 -125 l-15 -45 -7 40 c-12 63
-35 335 -28 335 3 0 19 -28 35 -62z m-139 -344 c-5 -5 -70 58 -100 98 -35 45
-67 139 -67 195 0 43 3 39 85 -123 47 -92 84 -168 82 -170z m338 -78 c88 -42
118 -92 130 -217 6 -70 5 -77 -11 -82 -195 -57 -194 -56 -194 -92 0 -46 24
-51 117 -27 47 13 88 21 90 18 5 -5 32 -717 33 -869 0 -69 -3 -98 -11 -95 -13
4 -238 386 -239 404 0 7 29 20 65 29 72 20 88 33 83 66 -7 47 -37 48 -189 2
-12 -3 -29 17 -63 75 -25 43 -46 81 -46 85 0 3 24 13 54 21 62 18 81 36 72 70
-9 35 -32 39 -109 17 l-67 -18 -19 26 c-25 36 -101 171 -101 180 0 4 25 15 55
25 44 14 56 22 61 43 5 20 2 31 -15 44 -20 17 -24 17 -85 -1 -36 -10 -67 -16
-70 -12 -12 11 -5 114 10 150 18 44 58 88 99 110 45 24 215 70 260 71 23 1 62
-9 90 -23z"/>
<path d="M4115 3734 c-404 -77 -717 -260 -859 -503 -109 -185 -162 -443 -154
-750 l3 -144 -174 -103 c-96 -56 -178 -110 -183 -119 -7 -11 -5 -24 5 -39 14
-21 33 -25 214 -50 109 -14 206 -26 215 -26 16 0 48 -35 48 -52 0 -5 -378 -8
-840 -8 l-839 0 5 28 c4 20 -18 104 -70 272 -42 134 -76 247 -76 252 0 4 15
14 34 22 58 24 113 82 132 138 59 178 -103 348 -281 294 -27 -9 -51 -16 -52
-16 0 0 -13 20 -27 44 -63 107 -202 161 -328 126 -93 -26 -187 -127 -203 -218
l-6 -37 -72 0 c-120 -1 -212 -57 -263 -162 -36 -73 -38 -177 -5 -246 21 -44
22 -47 5 -97 -32 -98 5 -232 83 -301 94 -82 211 -97 324 -42 59 29 76 44 121
106 13 17 19 12 76 -63 34 -44 62 -85 62 -90 0 -6 -57 -10 -140 -10 -171 0
-166 5 -156 -144 16 -231 80 -444 193 -635 45 -77 171 -239 215 -276 181 -157
251 -204 413 -280 255 -121 511 -175 828 -175 330 0 586 53 843 174 308 146
532 360 672 641 86 172 134 353 148 558 10 146 27 137 -246 137 l-230 0 0 38
c0 68 8 78 70 101 105 39 301 141 405 211 115 79 252 214 303 302 136 230 166
531 91 901 -22 104 -62 231 -80 253 -16 20 -73 16 -224 -12z m178 -131 c51
-181 86 -459 70 -560 l-8 -52 -110 47 c-202 87 -382 203 -531 344 l-83 77 32
20 c87 53 286 122 451 157 165 34 160 35 179 -33z m-654 -281 c113 -103 213
-180 317 -243 90 -54 284 -149 347 -169 45 -14 45 -22 12 -120 -88 -258 -323
-459 -725 -621 -129 -51 -122 -43 -136 -171 l-5 -58 -49 0 -49 0 -45 69 c-51
78 -36 72 -231 97 -71 9 -131 17 -133 19 -1 1 56 37 128 80 71 42 130 82 130
89 1 336 8 510 24 581 45 203 108 329 222 443 46 45 88 82 95 82 6 0 50 -35
98 -78z m-2573 -325 c56 -29 104 -105 104 -166 0 -16 29 -40 47 -41 7 0 29 15
49 33 33 28 44 32 95 32 50 0 62 -4 88 -29 46 -44 57 -88 36 -142 -20 -52 -54
-81 -104 -89 -70 -12 -80 -15 -85 -33 -3 -9 32 -136 78 -282 l83 -265 -36 -22
c-20 -13 -40 -23 -46 -23 -5 0 -50 79 -98 175 -57 112 -95 176 -107 180 -28 9
-60 -12 -60 -39 0 -13 36 -93 80 -179 44 -85 80 -158 80 -161 0 -3 -29 -6 -64
-6 l-63 0 -89 116 c-49 63 -104 138 -123 165 -27 38 -40 49 -61 49 -33 0 -43
-11 -59 -67 -48 -170 -285 -195 -361 -38 -29 59 -29 128 -1 183 25 48 27 80 6
88 -25 10 -48 88 -43 145 6 55 25 87 81 133 47 37 131 47 191 22 49 -20 52
-20 76 4 16 16 19 28 14 58 -10 61 12 122 61 168 64 62 150 74 231 31z m2864
-1196 c0 -26 -3 -69 -6 -95 l-7 -46 -1547 0 -1547 0 -7 46 c-3 26 -6 69 -6 95
l0 49 1560 0 1560 0 0 -49z m-47 -293 c-108 -370 -357 -655 -715 -822 -482
-225 -1164 -217 -1630 17 -152 76 -241 140 -354 252 -162 160 -261 327 -327
553 l-16 52 1529 0 1529 0 -16 -52z"/>
<path d="M3895 3455 c-30 -30 -31 -54 -4 -89 39 -49 119 -22 119 42 0 33 -8
45 -37 61 -33 17 -51 14 -78 -14z"/>
<path d="M3499 3169 c-54 -54 -127 -264 -153 -442 -24 -162 -20 -187 30 -187
31 0 54 36 54 86 0 59 27 208 52 284 11 36 39 102 62 148 43 88 43 107 -2 123
-17 6 -28 3 -43 -12z"/>
<path d="M582 2528 c-37 -37 19 -128 108 -174 56 -29 144 -25 202 9 25 15 56
39 67 53 53 67 -6 128 -65 69 -79 -79 -169 -72 -230 19 -26 37 -59 47 -82 24z"/>
<path d="M1140 1470 c-27 -27 -26 -37 15 -98 25 -37 42 -52 58 -52 28 0 47 17
47 43 0 25 -48 105 -70 117 -25 13 -27 13 -50 -10z"/>
<path d="M1296 1254 c-34 -34 -15 -64 109 -175 111 -98 297 -219 338 -219 54
0 65 61 16 88 -98 54 -247 161 -327 236 -50 47 -98 86 -106 86 -8 0 -22 -7
-30 -16z"/>
<path d="M564 3559 c-63 -18 -124 -104 -124 -177 0 -55 48 -130 102 -158 68
-35 182 -8 226 53 104 146 -31 333 -204 282z m115 -106 c12 -10 24 -35 28 -55
5 -32 1 -41 -25 -68 -38 -38 -79 -40 -116 -5 -78 72 31 195 113 128z"/>
<path d="M2738 2860 c-100 -30 -155 -147 -114 -244 57 -136 255 -146 324 -16
76 143 -56 307 -210 260z m116 -121 c34 -40 33 -74 -3 -110 -47 -46 -106 -37
-136 22 -46 88 75 164 139 88z"/>
<path d="M1755 2465 c-51 -28 -75 -57 -91 -112 -16 -54 -14 -72 12 -133 18
-42 81 -89 129 -97 47 -8 116 13 150 44 87 82 79 215 -18 287 -37 27 -140 34
-182 11z m124 -90 c66 -34 52 -132 -22 -158 -24 -9 -83 16 -96 41 -31 57 9
129 72 131 10 1 31 -6 46 -14z"/>
</g>
</svg>
